<svg xmlns="http://www.w3.org/2000/svg" width="960" height="680" viewBox="0 0 960 680" role="img" aria-labelledby="title desc">
  <title id="title">KvPCloud Dashboard</title>
  <desc id="desc">Illustration einer Cloud-Software-Oberfläche mit Dokumenten, Aufgaben und Sicherheitsstatus.</desc>
  <rect width="960" height="680" rx="32" fill="#eef6ff"/>
  <rect x="70" y="70" width="820" height="540" rx="24" fill="#ffffff" stroke="#bfd0e4" stroke-width="3"/>
  <rect x="70" y="70" width="820" height="78" rx="24" fill="#175cd3"/>
  <circle cx="116" cy="109" r="12" fill="#ffffff" opacity="0.95"/>
  <circle cx="152" cy="109" r="12" fill="#7dd3fc" opacity="0.95"/>
  <circle cx="188" cy="109" r="12" fill="#34d399" opacity="0.95"/>
  <text x="240" y="118" fill="#ffffff" font-family="Arial, Helvetica, sans-serif" font-size="28" font-weight="700">KvPCloud</text>
  <rect x="110" y="188" width="190" height="360" rx="18" fill="#f8fafc" stroke="#d7e0ea" stroke-width="2"/>
  <rect x="136" y="220" width="116" height="14" rx="7" fill="#175cd3"/>
  <rect x="136" y="264" width="132" height="12" rx="6" fill="#8aa0b8"/>
  <rect x="136" y="304" width="98" height="12" rx="6" fill="#8aa0b8"/>
  <rect x="136" y="344" width="126" height="12" rx="6" fill="#8aa0b8"/>
  <rect x="136" y="384" width="86" height="12" rx="6" fill="#8aa0b8"/>
  <rect x="136" y="468" width="116" height="42" rx="10" fill="#087f5b"/>
  <text x="156" y="496" fill="#ffffff" font-family="Arial, Helvetica, sans-serif" font-size="16" font-weight="700">Sicher</text>
  <rect x="340" y="188" width="220" height="160" rx="18" fill="#e8f1ff" stroke="#bfd0e4" stroke-width="2"/>
  <text x="370" y="236" fill="#102033" font-family="Arial, Helvetica, sans-serif" font-size="22" font-weight="700">Dokumente</text>
  <rect x="370" y="266" width="150" height="12" rx="6" fill="#526171"/>
  <rect x="370" y="296" width="110" height="12" rx="6" fill="#526171"/>
  <path d="M520 230h-48a16 16 0 0 1-16-16v-10h64z" fill="#175cd3" opacity="0.18"/>
  <rect x="600" y="188" width="220" height="160" rx="18" fill="#eefaf5" stroke="#b8dfd0" stroke-width="2"/>
  <text x="630" y="236" fill="#102033" font-family="Arial, Helvetica, sans-serif" font-size="22" font-weight="700">Aufgaben</text>
  <circle cx="642" cy="274" r="10" fill="#087f5b"/>
  <rect x="666" y="268" width="104" height="12" rx="6" fill="#526171"/>
  <circle cx="642" cy="314" r="10" fill="#087f5b"/>
  <rect x="666" y="308" width="78" height="12" rx="6" fill="#526171"/>
  <rect x="340" y="388" width="480" height="160" rx="18" fill="#ffffff" stroke="#d7e0ea" stroke-width="2"/>
  <text x="370" y="436" fill="#102033" font-family="Arial, Helvetica, sans-serif" font-size="22" font-weight="700">Workflow-Status</text>
  <rect x="370" y="472" width="390" height="18" rx="9" fill="#d7e0ea"/>
  <rect x="370" y="472" width="280" height="18" rx="9" fill="#175cd3"/>
  <rect x="370" y="510" width="210" height="12" rx="6" fill="#526171"/>
  <path d="M750 438l22 22 42-52" fill="none" stroke="#087f5b" stroke-width="14" stroke-linecap="round" stroke-linejoin="round"/>
</svg>
