<svg xmlns="http://www.w3.org/2000/svg" viewBox="0 0 1000 820" role="img" aria-labelledby="title desc">
  <title id="title">von Poncet Cloud Logo</title>
  <desc id="desc">Logo mit Cloud-Bildmarke, digitalen Leiterbahnen, grünem Blatt und Schriftzug von Poncet Cloud</desc>
  <defs>
    <linearGradient id="cloudStroke" x1="232" x2="772" y1="135" y2="405" gradientUnits="userSpaceOnUse">
      <stop offset="0" stop-color="#086fbe"/>
      <stop offset="0.45" stop-color="#0c79b8"/>
      <stop offset="1" stop-color="#5ab22f"/>
    </linearGradient>
    <linearGradient id="leafFill" x1="532" x2="790" y1="438" y2="324" gradientUnits="userSpaceOnUse">
      <stop offset="0" stop-color="#0d8f72"/>
      <stop offset="0.62" stop-color="#41a844"/>
      <stop offset="1" stop-color="#66b72e"/>
    </linearGradient>
    <linearGradient id="pixelFill" x1="162" x2="298" y1="252" y2="392" gradientUnits="userSpaceOnUse">
      <stop offset="0" stop-color="#0b74c8"/>
      <stop offset="1" stop-color="#086fbe"/>
    </linearGradient>
  </defs>

  <rect width="1000" height="820" rx="52" fill="#ffffff"/>

  <g transform="translate(38 44)">
    <path d="M217 386c-74 0-134-60-134-134 0-69 53-126 121-133 34-116 141-201 270-201 141 0 259 100 285 232 83 9 148 79 148 164 0 92-74 166-166 166H612" fill="none" stroke="url(#cloudStroke)" stroke-width="38" stroke-linecap="round" stroke-linejoin="round"/>
    <path d="M615 480H217c-60 0-113-39-129-95" fill="none" stroke="url(#cloudStroke)" stroke-width="38" stroke-linecap="round" stroke-linejoin="round"/>

    <rect x="118" y="228" width="38" height="38" rx="6" fill="url(#pixelFill)"/>
    <rect x="181" y="190" width="38" height="38" rx="6" fill="url(#pixelFill)"/>
    <rect x="187" y="282" width="48" height="48" rx="7" fill="url(#pixelFill)"/>
    <rect x="265" y="228" width="45" height="45" rx="7" fill="url(#pixelFill)"/>
    <rect x="111" y="321" width="40" height="40" rx="6" fill="url(#pixelFill)"/>

    <path d="M171 381h240l97-97h97" fill="none" stroke="#0871c2" stroke-width="29" stroke-linecap="round" stroke-linejoin="round"/>
    <path d="M224 318h180l102-141" fill="none" stroke="#0871c2" stroke-width="29" stroke-linecap="round" stroke-linejoin="round"/>
    <path d="M252 249h155l80-108" fill="none" stroke="#0871c2" stroke-width="29" stroke-linecap="round" stroke-linejoin="round"/>
    <path d="M219 446h245l85-87h100" fill="none" stroke="#0871c2" stroke-width="29" stroke-linecap="round" stroke-linejoin="round"/>

    <circle cx="508" cy="141" r="30" fill="#ffffff" stroke="#0871c2" stroke-width="22"/>
    <circle cx="604" cy="284" r="30" fill="#ffffff" stroke="#0871c2" stroke-width="22"/>
    <circle cx="649" cy="359" r="30" fill="#ffffff" stroke="#0871c2" stroke-width="22"/>

    <path d="M492 501c95-130 161-178 317-198-32 116-104 184-213 210-38 9-72 7-104-12Z" fill="url(#leafFill)"/>
    <path d="M536 476c60-55 126-93 216-123" fill="none" stroke="#ffffff" stroke-width="23" stroke-linecap="round"/>
  </g>

  <text x="190" y="642" fill="#071421" font-family="Inter, Arial, sans-serif" font-size="118" font-weight="500" letter-spacing="1">von Poncet</text>
  <line x1="190" y1="715" x2="360" y2="715" stroke="#0871c2" stroke-width="7" stroke-linecap="round"/>
  <text x="405" y="746" fill="#0871c2" font-family="Inter, Arial, sans-serif" font-size="86" font-weight="400" letter-spacing="14">Cloud</text>
  <line x1="705" y1="715" x2="875" y2="715" stroke="#5ab22f" stroke-width="7" stroke-linecap="round"/>
</svg>
